<svg version="1.1" id="svgcontent" xmlns="http://www.w3.org/2000/svg" xmlns:xlink="http://www.w3.org/1999/xlink" x="655.1999575125196" y="154.80004248748037" viewBox="0 0 48 48" xml:space="preserve" width="24" height="24"><defs></defs><g style="pointer-events:all"><g id="svg_1"><g fill="red" id="svg_2"><path d="M25.984616931413377,24.00007829364131 L41.55094255193042,8.433682509344793 C42.09899183332275,7.885633227952465 42.09899183332275,6.997079124821946 41.55094255193042,6.4491000072090765 C41.00289327053809,5.901120889596206 40.11433916740757,5.901050725816746 39.5663600497947,6.4491000072090765 L23.99996426549819,22.015495791505586 L8.433638644981146,6.4491000072090765 C7.8855893635888155,5.901050725816746 6.99703526045829,5.901050725816746 6.44905614284542,6.4491000072090765 C5.901077025232556,6.997149288601407 5.901006861453091,7.885703391731932 6.44905614284542,8.433682509344793 L22.01538176336247,24.00000812986184 L6.44905614284542,39.56640391415835 C5.901006861453091,40.11445319555068 5.901006861453091,41.003007298681204 6.44905614284542,41.55098641629407 C6.723045701651857,41.82497597510051 7.082214088727438,41.96193567261399 7.4413824758030165,41.96193567261399 C7.800550862878595,41.96193567261399 8.159649086174708,41.82497597510051 8.433708808760606,41.55098641629407 L23.99996426549819,25.984660795777025 L39.566289886015234,41.55098641629407 C39.84027944482167,41.82497597510051 40.19944783189726,41.96193567261399 40.55861621897283,41.96193567261399 S41.276882829344515,41.82497597510051 41.55094255193042,41.55098641629407 C42.09899183332275,41.00293713490174 42.09899183332275,40.11438303177121 41.55094255193042,39.56640391415835 L25.984616931413377,24.00007829364131 z" id="svg_3"></path></g></g><g style="pointer-events:inherit" id="svg_4"></g><g style="pointer-events:inherit" id="svg_5"></g><g style="pointer-events:inherit" id="svg_6"></g><g style="pointer-events:inherit" id="svg_7"></g><g style="pointer-events:inherit" id="svg_8"></g><g style="pointer-events:inherit" id="svg_9"></g><g style="pointer-events:inherit" id="svg_10"></g><g style="pointer-events:inherit" id="svg_11"></g><g style="pointer-events:inherit" id="svg_12"></g><g style="pointer-events:inherit" id="svg_13"></g><g style="pointer-events:inherit" id="svg_14"></g><g style="pointer-events:inherit" id="svg_15"></g><g style="pointer-events:inherit" id="svg_16"></g><g style="pointer-events:inherit" id="svg_17"></g><g id="svg_18"></g></g></svg>